<mxfile host="65bd71144e">
    <diagram id="r2AKeFDaDW2Wl4H9EOPQ" name="Zustandsdiagramm">
        <mxGraphModel dx="623" dy="373" grid="1" gridSize="10" guides="1" tooltips="1" connect="1" arrows="1" fold="1" page="1" pageScale="1" pageWidth="827" pageHeight="1169" math="0" shadow="0">
            <root>
                <mxCell id="0"/>
                <mxCell id="1" parent="0"/>
                <mxCell id="6" style="edgeStyle=none;html=1;exitX=0.5;exitY=1;exitDx=0;exitDy=0;endArrow=openThin;endFill=0;endSize=10;" parent="1" source="2" target="4" edge="1">
                    <mxGeometry relative="1" as="geometry"/>
                </mxCell>
                <mxCell id="2" value="" style="ellipse;fillColor=#000000;strokeColor=none;" parent="1" vertex="1">
                    <mxGeometry x="195" y="50" width="30" height="30" as="geometry"/>
                </mxCell>
                <mxCell id="3" value="" style="ellipse;html=1;shape=endState;fillColor=#000000;strokeColor=#000000;" parent="1" vertex="1">
                    <mxGeometry x="345" y="2196" width="30" height="30" as="geometry"/>
                </mxCell>
                <mxCell id="129" style="edgeStyle=none;html=1;endArrow=openThin;endFill=0;endSize=10;strokeWidth=1;" parent="1" source="4" target="134" edge="1">
                    <mxGeometry relative="1" as="geometry">
                        <mxPoint x="430" y="160" as="targetPoint"/>
                    </mxGeometry>
                </mxCell>
                <mxCell id="130" style="edgeStyle=none;html=1;endArrow=openThin;endFill=0;endSize=10;strokeWidth=1;entryX=0;entryY=0.5;entryDx=0;entryDy=0;" parent="1" source="4" target="4" edge="1">
                    <mxGeometry relative="1" as="geometry">
                        <mxPoint x="70" y="160" as="targetPoint"/>
                        <Array as="points">
                            <mxPoint x="210" y="290"/>
                            <mxPoint x="70" y="290"/>
                            <mxPoint x="70" y="160"/>
                        </Array>
                    </mxGeometry>
                </mxCell>
                <mxCell id="131" value="Eingaben fehlerhaft" style="edgeLabel;html=1;align=center;verticalAlign=middle;resizable=0;points=[];" parent="130" vertex="1" connectable="0">
                    <mxGeometry x="-0.5107" relative="1" as="geometry">
                        <mxPoint x="8" y="-50" as="offset"/>
                    </mxGeometry>
                </mxCell>
                <mxCell id="4" value="Parametereingabe UnvollstÃ¤ndig&lt;br&gt;entry/Eingabe Suchkriterien&lt;br&gt;do/Suche nach Fahrzeugen&lt;br&gt;entsprechend der Eingabe" style="html=1;align=center;verticalAlign=top;rounded=1;absoluteArcSize=1;arcSize=10;dashed=0;" parent="1" vertex="1">
                    <mxGeometry x="115" y="119" width="190" height="81" as="geometry"/>
                </mxCell>
                <mxCell id="91" style="edgeStyle=none;html=1;endArrow=open;endFill=0;" parent="1" source="13" target="90" edge="1">
                    <mxGeometry relative="1" as="geometry"/>
                </mxCell>
                <mxCell id="13" value="Reservierung&amp;nbsp;&lt;br&gt;storniert" style="whiteSpace=wrap;html=1;verticalAlign=top;rounded=1;arcSize=10;dashed=0;" parent="1" vertex="1">
                    <mxGeometry x="450" y="1466" width="120" height="50" as="geometry"/>
                </mxCell>
                <mxCell id="139" style="edgeStyle=none;html=1;entryX=0.5;entryY=0;entryDx=0;entryDy=0;endArrow=openThin;endFill=0;endSize=10;strokeWidth=1;" parent="1" source="14" target="77" edge="1">
                    <mxGeometry relative="1" as="geometry"/>
                </mxCell>
                <mxCell id="14" value="Reservierungs-&lt;br&gt;zeitraum&lt;br&gt;angegeben" style="whiteSpace=wrap;html=1;verticalAlign=top;rounded=1;arcSize=10;dashed=0;" parent="1" vertex="1">
                    <mxGeometry x="486" y="1370" width="120" height="60" as="geometry"/>
                </mxCell>
                <mxCell id="74" style="edgeStyle=none;html=1;endArrow=open;endFill=0;" parent="1" source="15" target="14" edge="1">
                    <mxGeometry relative="1" as="geometry"/>
                </mxCell>
                <mxCell id="15" value="Reservierung&amp;nbsp;&lt;br&gt;kurzfristig" style="whiteSpace=wrap;html=1;verticalAlign=top;rounded=1;arcSize=10;dashed=0;" parent="1" vertex="1">
                    <mxGeometry x="486" y="1290" width="120" height="50" as="geometry"/>
                </mxCell>
                <mxCell id="75" style="edgeStyle=none;html=1;endArrow=open;endFill=0;entryX=1;entryY=0.5;entryDx=0;entryDy=0;" parent="1" source="16" target="14" edge="1">
                    <mxGeometry relative="1" as="geometry">
                        <mxPoint x="646" y="1400" as="targetPoint"/>
                        <Array as="points">
                            <mxPoint x="682" y="1400"/>
                        </Array>
                    </mxGeometry>
                </mxCell>
                <mxCell id="16" value="Reservierung&amp;nbsp;&lt;br&gt;Monate vorher" style="whiteSpace=wrap;html=1;verticalAlign=top;rounded=1;arcSize=10;dashed=0;" parent="1" vertex="1">
                    <mxGeometry x="622" y="1225" width="120" height="50" as="geometry"/>
                </mxCell>
                <mxCell id="99" style="edgeStyle=none;html=1;endArrow=open;endFill=0;" parent="1" source="17" target="98" edge="1">
                    <mxGeometry relative="1" as="geometry"/>
                </mxCell>
                <mxCell id="17" value="Reservierung&lt;br&gt;modifiziert" style="whiteSpace=wrap;html=1;verticalAlign=top;rounded=1;arcSize=10;dashed=0;" parent="1" vertex="1">
                    <mxGeometry x="70" y="1466" width="120" height="50" as="geometry"/>
                </mxCell>
                <mxCell id="72" style="edgeStyle=none;html=1;endArrow=open;endFill=0;entryX=0;entryY=0.5;entryDx=0;entryDy=0;" parent="1" source="69" target="15" edge="1">
                    <mxGeometry relative="1" as="geometry">
                        <Array as="points">
                            <mxPoint x="451" y="1315"/>
                        </Array>
                    </mxGeometry>
                </mxCell>
                <mxCell id="73" style="edgeStyle=none;html=1;endArrow=open;endFill=0;" parent="1" source="69" target="16" edge="1">
                    <mxGeometry relative="1" as="geometry"/>
                </mxCell>
                <mxCell id="76" style="edgeStyle=none;html=1;exitX=0.5;exitY=1;exitDx=0;exitDy=0;endArrow=open;endFill=0;entryX=0;entryY=0.5;entryDx=0;entryDy=0;" parent="1" source="69" target="14" edge="1">
                    <mxGeometry relative="1" as="geometry">
                        <Array as="points">
                            <mxPoint x="451" y="1400"/>
                        </Array>
                    </mxGeometry>
                </mxCell>
                <mxCell id="69" value="" style="rhombus;" parent="1" vertex="1">
                    <mxGeometry x="436" y="1235" width="30" height="30" as="geometry"/>
                </mxCell>
                <mxCell id="79" style="edgeStyle=none;html=1;endArrow=open;endFill=0;" parent="1" source="77" target="13" edge="1">
                    <mxGeometry relative="1" as="geometry"/>
                </mxCell>
                <mxCell id="84" style="edgeStyle=none;html=1;endArrow=open;endFill=0;" parent="1" source="77" target="17" edge="1">
                    <mxGeometry relative="1" as="geometry"/>
                </mxCell>
                <mxCell id="87" style="edgeStyle=none;html=1;endArrow=open;endFill=0;" parent="1" source="77" target="86" edge="1">
                    <mxGeometry relative="1" as="geometry"/>
                </mxCell>
                <mxCell id="77" value="" style="rhombus;" parent="1" vertex="1">
                    <mxGeometry x="345" y="1476" width="30" height="30" as="geometry"/>
                </mxCell>
                <mxCell id="106" style="edgeStyle=none;html=1;endArrow=open;endFill=0;" parent="1" source="86" target="103" edge="1">
                    <mxGeometry relative="1" as="geometry"/>
                </mxCell>
                <mxCell id="86" value="Reservierung&lt;br&gt;erfolgreich" style="whiteSpace=wrap;html=1;verticalAlign=top;rounded=1;arcSize=10;dashed=0;" parent="1" vertex="1">
                    <mxGeometry x="300" y="1536" width="120" height="50" as="geometry"/>
                </mxCell>
                <mxCell id="146" style="edgeStyle=none;html=1;exitX=0.5;exitY=1;exitDx=0;exitDy=0;entryX=0.5;entryY=0;entryDx=0;entryDy=0;endArrow=open;endFill=0;" edge="1" parent="1" source="90" target="143">
                    <mxGeometry relative="1" as="geometry"/>
                </mxCell>
                <mxCell id="90" value="Reservierung&amp;nbsp;&lt;br&gt;abgebrochen" style="whiteSpace=wrap;html=1;verticalAlign=top;rounded=1;arcSize=10;dashed=0;" parent="1" vertex="1">
                    <mxGeometry x="610" y="1466" width="120" height="50" as="geometry"/>
                </mxCell>
                <mxCell id="96" style="edgeStyle=none;html=1;endArrow=open;endFill=0;entryX=0.5;entryY=0;entryDx=0;entryDy=0;" parent="1" source="93" target="141" edge="1">
                    <mxGeometry relative="1" as="geometry">
                        <mxPoint x="130" y="1716" as="targetPoint"/>
                    </mxGeometry>
                </mxCell>
                <mxCell id="93" value="Reservierung&lt;br&gt;fehlerhaft" style="whiteSpace=wrap;html=1;verticalAlign=top;rounded=1;arcSize=10;dashed=0;" parent="1" vertex="1">
                    <mxGeometry x="70" y="1606" width="120" height="50" as="geometry"/>
                </mxCell>
                <mxCell id="100" style="edgeStyle=none;html=1;endArrow=open;endFill=0;" parent="1" source="98" target="93" edge="1">
                    <mxGeometry relative="1" as="geometry"/>
                </mxCell>
                <mxCell id="101" style="edgeStyle=none;html=1;endArrow=open;endFill=0;" parent="1" source="98" target="86" edge="1">
                    <mxGeometry relative="1" as="geometry"/>
                </mxCell>
                <mxCell id="98" value="" style="rhombus;" parent="1" vertex="1">
                    <mxGeometry x="115" y="1546" width="30" height="30" as="geometry"/>
                </mxCell>
                <mxCell id="108" style="edgeStyle=none;html=1;endArrow=open;endFill=0;" parent="1" source="103" target="107" edge="1">
                    <mxGeometry relative="1" as="geometry"/>
                </mxCell>
                <mxCell id="103" value="Nutzerlegitimierung&lt;br&gt;mit richtiger&amp;nbsp;&lt;br&gt;Reservierung" style="whiteSpace=wrap;html=1;verticalAlign=top;rounded=1;arcSize=10;dashed=0;" parent="1" vertex="1">
                    <mxGeometry x="300" y="1621" width="120" height="60" as="geometry"/>
                </mxCell>
                <mxCell id="118" style="edgeStyle=none;html=1;endArrow=open;endFill=0;" parent="1" source="104" target="116" edge="1">
                    <mxGeometry relative="1" as="geometry"/>
                </mxCell>
                <mxCell id="104" value="Fahrzeug&amp;nbsp;&lt;br&gt;geÃ¶ffnet" style="whiteSpace=wrap;html=1;verticalAlign=top;rounded=1;arcSize=10;dashed=0;" parent="1" vertex="1">
                    <mxGeometry x="300" y="1786" width="120" height="50" as="geometry"/>
                </mxCell>
                <mxCell id="109" style="edgeStyle=none;html=1;endArrow=open;endFill=0;" parent="1" source="107" target="104" edge="1">
                    <mxGeometry relative="1" as="geometry"/>
                </mxCell>
                <mxCell id="115" style="edgeStyle=none;html=1;endArrow=open;endFill=0;" parent="1" source="107" target="113" edge="1">
                    <mxGeometry relative="1" as="geometry"/>
                </mxCell>
                <mxCell id="107" value="" style="rhombus;" parent="1" vertex="1">
                    <mxGeometry x="345" y="1716" width="30" height="30" as="geometry"/>
                </mxCell>
                <mxCell id="148" style="edgeStyle=none;html=1;exitX=1;exitY=0.5;exitDx=0;exitDy=0;endArrow=open;endFill=0;" edge="1" parent="1" source="113" target="142">
                    <mxGeometry relative="1" as="geometry"/>
                </mxCell>
                <mxCell id="113" value="Nutzer&amp;nbsp;&lt;br&gt;nicht&amp;nbsp;&lt;br&gt;legitimiert" style="whiteSpace=wrap;html=1;verticalAlign=top;rounded=1;arcSize=10;dashed=0;" parent="1" vertex="1">
                    <mxGeometry x="450" y="1701" width="120" height="60" as="geometry"/>
                </mxCell>
                <mxCell id="120" style="edgeStyle=none;html=1;endArrow=open;endFill=0;" parent="1" source="116" target="117" edge="1">
                    <mxGeometry relative="1" as="geometry"/>
                </mxCell>
                <mxCell id="116" value="Fahrzeug&amp;nbsp;&lt;br&gt;wird gefahren" style="whiteSpace=wrap;html=1;verticalAlign=top;rounded=1;arcSize=10;dashed=0;" parent="1" vertex="1">
                    <mxGeometry x="300" y="1866" width="120" height="50" as="geometry"/>
                </mxCell>
                <mxCell id="122" style="edgeStyle=none;html=1;endArrow=open;endFill=0;" parent="1" source="117" target="121" edge="1">
                    <mxGeometry relative="1" as="geometry"/>
                </mxCell>
                <mxCell id="117" value="Fahrzeug an&amp;nbsp;&lt;br&gt;definierten Parkplatz&amp;nbsp;&lt;br&gt;abgestellt" style="whiteSpace=wrap;html=1;verticalAlign=top;rounded=1;arcSize=10;dashed=0;" parent="1" vertex="1">
                    <mxGeometry x="300" y="1946" width="120" height="60" as="geometry"/>
                </mxCell>
                <mxCell id="124" style="edgeStyle=none;html=1;endArrow=open;endFill=0;" parent="1" source="121" target="123" edge="1">
                    <mxGeometry relative="1" as="geometry"/>
                </mxCell>
                <mxCell id="121" value="Fahrzeug&amp;nbsp;&lt;br&gt;verschlossen" style="whiteSpace=wrap;html=1;verticalAlign=top;rounded=1;arcSize=10;dashed=0;" parent="1" vertex="1">
                    <mxGeometry x="300" y="2036" width="120" height="50" as="geometry"/>
                </mxCell>
                <mxCell id="125" style="edgeStyle=none;html=1;endArrow=open;endFill=0;" parent="1" source="123" target="3" edge="1">
                    <mxGeometry relative="1" as="geometry"/>
                </mxCell>
                <mxCell id="123" value="Fahrzeugreservierung&lt;br&gt;abgeschlossen" style="whiteSpace=wrap;html=1;verticalAlign=top;rounded=1;arcSize=10;dashed=0;" parent="1" vertex="1">
                    <mxGeometry x="300" y="2116" width="120" height="50" as="geometry"/>
                </mxCell>
                <mxCell id="136" style="edgeStyle=none;html=1;entryX=0;entryY=0.5;entryDx=0;entryDy=0;endArrow=openThin;endFill=0;endSize=10;strokeWidth=1;" parent="1" source="126" target="69" edge="1">
                    <mxGeometry relative="1" as="geometry"/>
                </mxCell>
                <mxCell id="126" value="Reservierung Ã¼ber&amp;nbsp;&lt;br&gt;Internet oder Telefon&lt;br&gt;und Auswahl&amp;nbsp;Fahrzeug" style="html=1;align=center;verticalAlign=top;rounded=1;absoluteArcSize=1;arcSize=10;dashed=0;" parent="1" vertex="1">
                    <mxGeometry x="210" y="1220" width="140" height="60" as="geometry"/>
                </mxCell>
                <mxCell id="133" value="Eingaben korrekt" style="edgeLabel;html=1;align=center;verticalAlign=middle;resizable=0;points=[];" parent="1" vertex="1" connectable="0">
                    <mxGeometry x="370.00263157894716" y="170" as="geometry">
                        <mxPoint x="-3" y="-1" as="offset"/>
                    </mxGeometry>
                </mxCell>
                <mxCell id="134" value="Fahrzeugausgabe&lt;br&gt;do/Ausgabe des Fahrzeugs nach&amp;nbsp;&lt;br&gt;Suchkriterium" style="html=1;align=center;verticalAlign=top;rounded=1;absoluteArcSize=1;arcSize=10;dashed=0;" parent="1" vertex="1">
                    <mxGeometry x="440" y="129" width="190" height="61" as="geometry"/>
                </mxCell>
                <mxCell id="138" style="edgeStyle=none;html=1;endArrow=openThin;endFill=0;endSize=10;strokeWidth=1;" parent="1" source="137" target="126" edge="1">
                    <mxGeometry relative="1" as="geometry"/>
                </mxCell>
                <mxCell id="137" value="" style="ellipse;fillColor=#000000;strokeColor=none;" parent="1" vertex="1">
                    <mxGeometry x="110" y="1236" width="30" height="30" as="geometry"/>
                </mxCell>
                <mxCell id="140" value="Erster Gedanke fÃ¼r ein Zustandsdiagramm" style="text;html=1;align=center;verticalAlign=middle;resizable=0;points=[];autosize=1;strokeColor=#2D7600;fillColor=#60a917;fontColor=#ffffff;" vertex="1" parent="1">
                    <mxGeometry x="95" y="1370" width="240" height="20" as="geometry"/>
                </mxCell>
                <mxCell id="141" value="" style="shape=sumEllipse;perimeter=ellipsePerimeter;whiteSpace=wrap;html=1;backgroundOutline=1;" vertex="1" parent="1">
                    <mxGeometry x="115" y="1716" width="30" height="30" as="geometry"/>
                </mxCell>
                <mxCell id="142" value="" style="shape=sumEllipse;perimeter=ellipsePerimeter;whiteSpace=wrap;html=1;backgroundOutline=1;" vertex="1" parent="1">
                    <mxGeometry x="655" y="1716" width="30" height="30" as="geometry"/>
                </mxCell>
                <mxCell id="143" value="" style="shape=sumEllipse;perimeter=ellipsePerimeter;whiteSpace=wrap;html=1;backgroundOutline=1;" vertex="1" parent="1">
                    <mxGeometry x="655" y="1586" width="30" height="30" as="geometry"/>
                </mxCell>
                <mxCell id="149" value="Ideales Ende" style="text;html=1;align=center;verticalAlign=middle;resizable=0;points=[];autosize=1;strokeColor=#2D7600;fillColor=#60a917;fontColor=#ffffff;" vertex="1" parent="1">
                    <mxGeometry x="390" y="2201" width="90" height="20" as="geometry"/>
                </mxCell>
            </root>
        </mxGraphModel>
    </diagram>
</mxfile>